<svg xmlns="http://www.w3.org/2000/svg" version="1.1"
  xmlns:xlink="http://www.w3.org/1999/xlink" width="166" height="21">
  <path d="M7.254 19.78a8.19 8.19 0 0 0 2.704-.442c.85-.295 1.543-.702 2.08-1.222h0L9.672 15.23c-.26.312-.602.55-1.027.715s-.854.247-1.287.247c-.468 0-.888-.087-1.26-.26a2.91 2.91 0 0 1-.962-.715 3.11 3.11 0 0 1-.611-1.053 3.85 3.85 0 0 1-.208-1.274c0-.45.074-.875.22-1.274s.35-.75.61-1.053.572-.546.936-.728.77-.273 1.222-.273a3.03 3.03 0 0 1 1.274.286c.416.19.745.442.988.754h0l2.47-2.86c-.26-.26-.568-.498-.923-.715s-.745-.4-1.17-.546a9.3 9.3 0 0 0-1.326-.351C8.16 6.043 7.696 6 7.228 6c-1.005 0-1.95.16-2.834.48a6.76 6.76 0 0 0-2.301 1.378C1.443 8.457.932 9.18.56 10.03S0 11.833 0 12.9c0 1.075.186 2.037.56 2.886s.884 1.573 1.534 2.17S3.5 19 4.394 19.312s1.837.468 2.86.468zm13 0c.988 0 1.915-.165 2.782-.494a7.14 7.14 0 0 0 2.288-1.391c.66-.598 1.18-1.326 1.56-2.184s.572-1.816.572-2.873-.19-2.01-.572-2.86-.9-1.57-1.56-2.158-1.42-1.04-2.288-1.352S21.242 6 20.254 6c-.97 0-1.894.156-2.77.468s-1.638.763-2.288 1.352-1.166 1.31-1.547 2.158-.572 1.803-.572 2.86.19 2.015.572 2.873.897 1.586 1.547 2.184 1.413 1.062 2.288 1.39 1.798.494 2.77.494zm.026-3.588c-.503 0-.945-.095-1.326-.286a2.88 2.88 0 0 1-.962-.767c-.26-.32-.455-.68-.585-1.08a3.92 3.92 0 0 1 0-2.444c.13-.4.32-.75.572-1.053s.568-.55.95-.74.823-.286 1.326-.286.945.095 1.326.286a3.04 3.04 0 0 1 .962.741 3.23 3.23 0 0 1 .598 1.053c.14.4.208.806.208 1.222a3.92 3.92 0 0 1-.195 1.222c-.13.4-.325.758-.585 1.08a2.88 2.88 0 0 1-.962.767c-.38.19-.823.286-1.326.286zm14.456 3.536c.45 0 .88-.06 1.287-.182a5.41 5.41 0 0 0 1.118-.468 3.85 3.85 0 0 0 .884-.676c.25-.26.455-.537.61-.832h.052v1.794h4.108V6.416h-4.264V13.4c0 .745-.195 1.395-.585 1.95s-.958.832-1.703.832c-.4 0-.72-.074-.962-.22s-.438-.35-.585-.61a2.6 2.6 0 0 1-.299-.884c-.052-.33-.078-.676-.078-1.04h0v-7.02h-4.3v8.008a7.66 7.66 0 0 0 .247 1.937c.165.633.433 1.196.806 1.7s.858.897 1.456 1.21 1.33.468 2.197.468zm15.652-.364v-6.656c0-.26.052-.563.156-.9s.273-.667.507-.962.546-.546.936-.754.87-.312 1.443-.312l.533.026a3.32 3.32 0 0 1 .559.104h0l.182-3.744c-.104-.035-.238-.06-.403-.078a4.84 4.84 0 0 0-.507-.026c-.797 0-1.5.208-2.106.624a4.2 4.2 0 0 0-1.404 1.612h0-.052V6.416h-4.108v12.948h4.264zm10.296.416a8.55 8.55 0 0 0 1.976-.234 5.55 5.55 0 0 0 1.781-.754 4.05 4.05 0 0 0 1.287-1.365c.33-.563.494-1.252.494-2.067 0-.624-.12-1.16-.364-1.612a3.61 3.61 0 0 0-.962-1.144 5.19 5.19 0 0 0-1.339-.754c-.494-.19-.984-.338-1.47-.442-.832-.19-1.434-.364-1.807-.52s-.56-.416-.56-.78c0-.38.17-.65.507-.806s.706-.234 1.105-.234c.52 0 1.014.113 1.482.338a4.75 4.75 0 0 1 1.222.832h0l2.34-2.418c-.64-.607-1.426-1.062-2.353-1.365A9.1 9.1 0 0 0 61.178 6a7.46 7.46 0 0 0-1.885.247c-.633.165-1.21.42-1.73.767s-.945.793-1.274 1.34-.494 1.21-.494 1.99c0 .607.113 1.127.338 1.56s.516.797.87 1.092a4.29 4.29 0 0 0 1.209.702c.45.173.9.312 1.352.416.884.208 1.534.407 1.95.598s.624.485.624.884c0 .416-.17.706-.507.87s-.68.247-1.027.247a3.9 3.9 0 0 1-1.768-.416 4.78 4.78 0 0 1-1.404-1.04h0l-2.392 2.522c.676.66 1.52 1.157 2.535 1.495s2.05.507 3.107.507zm14.482 0c1.317 0 2.474-.238 3.47-.715s1.798-1.157 2.405-2.04h0l-2.964-1.872c-.295.4-.676.724-1.144.975s-1.04.377-1.716.377c-.38 0-.75-.06-1.105-.182a3.4 3.4 0 0 1-.962-.507 2.81 2.81 0 0 1-.702-.767 2.26 2.26 0 0 1-.325-.988H81.5c.017-.156.026-.32.026-.494h0v-.52c0-1.11-.16-2.097-.48-2.964s-.767-1.603-1.34-2.2-1.257-1.07-2.054-1.39S75.99 6 75.036 6c-.988 0-1.907.165-2.756.494s-1.586.793-2.2 1.39-1.118 1.326-1.482 2.184-.546 1.816-.546 2.873c0 1.092.186 2.063.56 2.912a6.14 6.14 0 0 0 1.534 2.145c.65.58 1.408 1.023 2.275 1.326s1.785.455 2.756.455zm2.444-8.372h-5.486a2.32 2.32 0 0 1 .26-.949c.156-.303.364-.568.624-.793s.563-.403.9-.533.728-.195 1.144-.195c.85 0 1.486.243 1.91.728s.637 1.066.637 1.742h0z" fill="#fff"></path>
  <path d="M88.264 19.656v-6.994c0-.78.2-1.434.598-1.963s.97-.793 1.716-.793c.38 0 .693.074.936.22a1.68 1.68 0 0 1 .585.598c.147.25.247.542.3.87s.078.676.078 1.04h0v7.02h4.3v-8.008a7.71 7.71 0 0 0-.247-1.924 4.76 4.76 0 0 0-.806-1.703c-.373-.494-.858-.897-1.456-1.21s-1.34-.468-2.223-.468c-.9 0-1.673.204-2.314.61s-1.11.87-1.404 1.39h0-.052V0H84v19.656h4.264zm16.302.364c.45 0 .88-.06 1.287-.182a5.41 5.41 0 0 0 1.118-.468 3.85 3.85 0 0 0 .884-.676c.25-.26.455-.537.61-.832h.052v1.794h4.108V6.708h-4.264v6.994c0 .745-.195 1.395-.585 1.95s-.958.832-1.703.832c-.4 0-.72-.074-.962-.22s-.438-.35-.585-.61a2.6 2.6 0 0 1-.299-.884c-.052-.33-.078-.676-.078-1.04h0v-7.02h-4.3v8.008a7.66 7.66 0 0 0 .247 1.937c.165.633.433 1.196.806 1.7s.858.897 1.456 1.21 1.33.468 2.197.468zm15.678-.364v-7.02a3.86 3.86 0 0 1 .143-1.053c.095-.338.238-.637.43-.897s.43-.464.715-.61.62-.22 1-.22.698.074.95.22a1.55 1.55 0 0 1 .585.598c.14.25.238.542.3.87s.09.676.09 1.04h0v7.072h4.3v-8.008a7.71 7.71 0 0 0-.247-1.924 4.76 4.76 0 0 0-.806-1.703c-.373-.494-.862-.897-1.47-1.21s-1.343-.468-2.2-.468c-.45 0-.875.06-1.274.182a5.5 5.5 0 0 0-1.105.468 3.67 3.67 0 0 0-.884.689c-.25.27-.455.542-.61.82h0-.052V6.708h-4.134v12.948h4.3zm16.796.312c.45 0 .9-.04 1.352-.117s.823-.17 1.118-.273h0l-.052-3.12c-.156.07-.35.12-.585.156s-.455.052-.663.052c-.607 0-1.027-.152-1.26-.455s-.35-.758-.35-1.365h0v-4.94h3.042V6.708h-3.042V3.302h-4.186v3.406h-2.054v3.198h2.08v5.46c0 .693.078 1.322.234 1.885a3.67 3.67 0 0 0 .767 1.456c.355.407.828.72 1.417.936s1.317.325 2.184.325zm11.076.104c1.317 0 2.474-.238 3.47-.715s1.798-1.157 2.405-2.04h0l-2.964-1.872c-.295.4-.676.724-1.144.975s-1.04.377-1.716.377c-.38 0-.75-.06-1.105-.182a3.4 3.4 0 0 1-.962-.507 2.81 2.81 0 0 1-.702-.767 2.26 2.26 0 0 1-.325-.988h9.386c.017-.156.026-.32.026-.494h0v-.52c0-1.11-.16-2.097-.48-2.964s-.767-1.603-1.34-2.2-1.257-1.07-2.054-1.39-1.673-.48-2.626-.48c-.988 0-1.907.165-2.756.494s-1.586.793-2.2 1.39-1.118 1.326-1.482 2.184-.546 1.816-.546 2.873c0 1.092.186 2.063.56 2.912a6.14 6.14 0 0 0 1.534 2.145c.65.58 1.408 1.023 2.275 1.326s1.785.455 2.756.455zm2.444-8.372h-5.486a2.32 2.32 0 0 1 .26-.949c.156-.303.364-.568.624-.793s.563-.403.9-.533.728-.195 1.144-.195c.85 0 1.486.243 1.91.728s.637 1.066.637 1.742h0zm10.842 7.956V13c0-.26.052-.563.156-.9s.273-.667.507-.962.546-.546.936-.754.87-.312 1.443-.312l.533.026a3.32 3.32 0 0 1 .559.104h0l.182-3.744c-.104-.035-.238-.06-.403-.078a4.84 4.84 0 0 0-.507-.026c-.797 0-1.5.208-2.106.624a4.2 4.2 0 0 0-1.404 1.612h0-.052V6.708h-4.108v12.948h4.264z" fill="#944fff"></path>
</svg>